<svg width="40" height="40" viewBox="0 0 40 40" fill="none" xmlns="http://www.w3.org/2000/svg">
<path d="M20.0087 0.00402832H19.9987C8.97349 0.00402832 0.0078125 8.9722 0.0078125 20C0.0078125 24.3741 1.41753 28.4282 3.81454 31.7201L1.32254 39.1486L9.00848 36.6916C12.1703 38.7861 15.9421 39.9959 20.0087 39.9959C31.034 39.9959 39.9997 31.0252 39.9997 20C39.9997 8.9747 31.034 0.00402832 20.0087 0.00402832ZM31.6439 28.2408C31.1615 29.603 29.2469 30.7328 27.7197 31.0627C26.6749 31.2852 25.3102 31.4626 20.7161 29.558C14.8398 27.1235 11.0556 21.1522 10.7606 20.7648C10.4782 20.3774 8.38611 17.6029 8.38611 14.7335C8.38611 11.8641 9.84331 10.4669 10.4307 9.86702C10.9131 9.37462 11.7104 9.14967 12.4753 9.14967C12.7227 9.14967 12.9452 9.16216 13.1451 9.17216C13.7325 9.19716 14.0275 9.23215 14.4149 10.1595C14.8973 11.3217 16.072 14.1911 16.212 14.4861C16.3545 14.781 16.497 15.1809 16.297 15.5684C16.1095 15.9683 15.9446 16.1457 15.6496 16.4857C15.3547 16.8256 15.0747 17.0856 14.7798 17.4505C14.5099 17.7679 14.2049 18.1078 14.5449 18.6952C14.8848 19.2701 16.0595 21.1872 17.7892 22.7269C20.0212 24.714 21.8309 25.3489 22.4782 25.6188C22.9606 25.8188 23.5355 25.7713 23.888 25.3964C24.3354 24.914 24.8877 24.1141 25.4501 23.3268C25.8501 22.7619 26.3549 22.6919 26.8848 22.8919C27.4247 23.0793 30.2817 24.4915 30.869 24.784C31.4564 25.0789 31.8438 25.2189 31.9863 25.4663C32.1263 25.7138 32.1263 26.8761 31.6439 28.2408Z" fill="white"/>
</svg>
