<svg width="40" height="40" viewBox="0 0 40 40" fill="none" xmlns="http://www.w3.org/2000/svg">
<path d="M38.8093 24.2215C41.703 11.2195 30.311 -0.592244 16.9327 1.6752C9.6699 -2.83139 -0.000488281 2.26121 -0.000488281 10.9015C-0.000488281 12.9109 0.55396 14.7921 1.518 16.4136C-1.17099 29.4456 10.3143 41.0875 23.681 38.6653C33.1299 43.6613 43.5712 33.6975 38.8093 24.2215ZM26.0919 32.0627C22.5821 33.5061 16.8061 33.5144 13.3113 31.6848C8.3279 29.0278 7.44211 23.0462 11.7412 23.0462C14.9813 23.0462 13.9556 26.8236 17.2274 28.3635C18.7292 29.0577 21.9577 29.1293 23.8341 27.8641C25.6873 26.6238 25.5175 24.6727 24.5101 23.7404C21.8411 21.2765 14.2037 22.2554 10.7122 17.9419C9.19537 16.0707 8.90899 12.7694 10.7738 10.3754C14.0239 6.19346 23.5611 5.93874 27.662 9.09686C31.4482 12.0269 30.4259 15.9159 27.3706 15.9159C23.6959 15.9159 25.6274 11.1079 19.6949 11.1079C15.3942 11.1079 13.7026 14.1662 16.7312 15.6545C20.8371 17.6939 31.3001 17.0129 31.3001 24.9823C31.2917 28.2986 29.2588 30.7708 26.0919 32.0627Z" fill="white"/>
</svg>
